<!-- <?xml version="1.0" encoding="UTF-8" standalone="no"?> -->
<!-- Created with Inkscape (http://www.inkscape.org/) -->

<svg
   width="499.99997"
   height="499.99997"
   viewBox="0 0 132.29166 132.29166"
   version="1.1"
   id="svg5"
   xmlns:inkscape="http://www.inkscape.org/namespaces/inkscape"
   xmlns:sodipodi="http://sodipodi.sourceforge.net/DTD/sodipodi-0.dtd"
   xmlns="http://www.w3.org/2000/svg"
   xmlns:svg="http://www.w3.org/2000/svg">
  <sodipodi:namedview
     id="namedview7"
     pagecolor="#505050"
     bordercolor="#eeeeee"
     borderopacity="1"
     inkscape:showpageshadow="0"
     inkscape:pageopacity="0"
     inkscape:pagecheckerboard="false"
     inkscape:deskcolor="#505050"
     inkscape:document-units="px"
     showgrid="false" />
  <defs
     id="defs2" />
  <g
     inkscape:label="Warstwa 1"
     inkscape:groupmode="layer"
     id="layer1">
    <path
       id="rect867"
       style="fill:white;fill-opacity:1;stroke-width:0.264583"
       d="M 124.56707,102.37411 A 68.791664,68.791664 0 0 1 98.745392,126.66617 H 132.29166 V 102.37411 Z"
       inkscape:export-filename="camera logo.svg"
       inkscape:export-xdpi="96"
       inkscape:export-ydpi="96" />
    <g
       id="g513">
      <path
         id="path111"
         style="fill:white;fill-opacity:1;stroke-width:0.264583"
         d="M 66.145832,0 A 66.145836,66.145836 0 0 0 0,66.145832 66.145836,66.145836 0 0 0 66.145832,132.29166 66.145836,66.145836 0 0 0 132.29166,66.145832 66.145836,66.145836 0 0 0 66.145832,0 Z m 0,10.583333 a 15.875,15.875 0 0 1 15.875,15.875 15.875,15.875 0 0 1 -15.875,15.875 15.875,15.875 0 0 1 -15.874999,-15.875 15.875,15.875 0 0 1 15.874999,-15.875 z M 31.75,30.427083 a 15.875,15.875 0 0 1 15.874999,15.875 A 15.875,15.875 0 0 1 31.75,62.177082 15.875,15.875 0 0 1 15.875,46.302083 15.875,15.875 0 0 1 31.75,30.427083 Z m 68.79167,0 a 15.875,15.875 0 0 1 15.875,15.875 15.875,15.875 0 0 1 -15.875,15.874999 15.875,15.875 0 0 1 -15.875005,-15.874999 15.875,15.875 0 0 1 15.875005,-15.875 z m -34.395838,19.84375 a 15.875,15.875 0 0 1 15.875,15.874999 15.875,15.875 0 0 1 -15.875,15.875 15.875,15.875 0 0 1 -15.874999,-15.875 15.875,15.875 0 0 1 15.874999,-15.874999 z M 31.75,70.114582 a 15.875,15.875 0 0 1 15.874999,15.875 A 15.875,15.875 0 0 1 31.75,101.86458 15.875,15.875 0 0 1 15.875,85.989582 15.875,15.875 0 0 1 31.75,70.114582 Z m 68.79167,0 a 15.875,15.875 0 0 1 15.875,15.875 15.875,15.875 0 0 1 -15.875,15.874998 15.875,15.875 0 0 1 -15.875005,-15.874998 15.875,15.875 0 0 1 15.875005,-15.875 z m -34.395838,19.84375 a 15.875,15.875 0 0 1 15.875,15.874998 15.875,15.875 0 0 1 -15.875,15.875 15.875,15.875 0 0 1 -15.874999,-15.875 15.875,15.875 0 0 1 15.874999,-15.874998 z" />
      <circle
         style="fill:white;fill-opacity:1;stroke-width:0.264583"
         id="path509"
         r="7.9375"
         cy="66.145836"
         cx="66.145836" />
    </g>
  </g>
</svg>
