<?xml version="1.0" encoding="UTF-8"?>
<svg width="321.8mm" height="105.83mm" version="1.1" viewBox="0 0 321.8 105.83" xmlns="http://www.w3.org/2000/svg">
<g transform="translate(-25.025)" fill="#fff">
<path d="m214.75 81.899a55.033 55.033 0 0 1-20.657 19.434h26.837v-19.434z" stroke-width=".21167"/>
<g transform="matrix(.8 0 0 .8 115.09 -1.0994e-8)" stroke-width=".26458">
<path d="m66.146 0a66.146 66.146 0 0 0-66.146 66.146 66.146 66.146 0 0 0 66.146 66.146 66.146 66.146 0 0 0 66.146-66.146 66.146 66.146 0 0 0-66.146-66.146zm0 10.583a15.875 15.875 0 0 1 15.875 15.875 15.875 15.875 0 0 1-15.875 15.875 15.875 15.875 0 0 1-15.875-15.875 15.875 15.875 0 0 1 15.875-15.875zm-34.396 19.844a15.875 15.875 0 0 1 15.875 15.875 15.875 15.875 0 0 1-15.875 15.875 15.875 15.875 0 0 1-15.875-15.875 15.875 15.875 0 0 1 15.875-15.875zm68.792 0a15.875 15.875 0 0 1 15.875 15.875 15.875 15.875 0 0 1-15.875 15.875 15.875 15.875 0 0 1-15.875-15.875 15.875 15.875 0 0 1 15.875-15.875zm-34.396 19.844a15.875 15.875 0 0 1 15.875 15.875 15.875 15.875 0 0 1-15.875 15.875 15.875 15.875 0 0 1-15.875-15.875 15.875 15.875 0 0 1 15.875-15.875zm-34.396 19.844a15.875 15.875 0 0 1 15.875 15.875 15.875 15.875 0 0 1-15.875 15.875 15.875 15.875 0 0 1-15.875-15.875 15.875 15.875 0 0 1 15.875-15.875zm68.792 0a15.875 15.875 0 0 1 15.875 15.875 15.875 15.875 0 0 1-15.875 15.875 15.875 15.875 0 0 1-15.875-15.875 15.875 15.875 0 0 1 15.875-15.875zm-34.396 19.844a15.875 15.875 0 0 1 15.875 15.875 15.875 15.875 0 0 1-15.875 15.875 15.875 15.875 0 0 1-15.875-15.875 15.875 15.875 0 0 1 15.875-15.875z"/>
<circle cx="66.146" cy="66.146" r="7.9375"/>
</g>
<g transform="scale(.89917 1.1121)" stroke-width=".29425" aria-label="M">
<path d="m29.977 89.908q-1.092-0.11494-1.6667-0.97701-0.57471-0.86207-0.45977-1.8965 0.28736-1.7816 1.092-3.2759 0.8046-1.4943 1.1494-2.2414 0.4023-0.74713 0.8046-1.6667l2.1839-5.0575 23.621-70.747 25.402 49.08 24.655-49.08 29.483 85h-30.862l-14.253-43.908-22.069 45.977-23.218-41.379-8.046 25.115q-1.8965 4.1954-2.7011 7.1264-0.8046 2.931-1.3218 4.5402-1.1494 3.6207-3.7931 3.3908z"/>
</g>
<g transform="scale(.82439 1.213)" stroke-width=".38514" aria-label="D">
<path d="m271.83 3.7098h23.469q16.417 0 24.09 2.3131 8.7445 2.708 13.483 6.9392 4.7954 4.2312 7.5033 8.7445 5.5288 9.1958 5.5288 20.874 0 18.392-13.201 29.788-9.365 8.1803-22.059 10.098-7.052 1.0719-19.746 1.0719h-19.069zm28.772 75.146q0.90266 0.05642 1.6361 0.05642h1.2976q15.289 0 26.121-9.5343 11.452-10.042 11.452-26.685 0-10.493-5.021-18.899-7.2777-12.242-23.018-14.837-5.1339-0.84624-12.468-0.95907z"/>
</g>
<g transform="scale(.82439 1.213)" stroke-width=".38513" aria-label="B">
<path d="m349.73 3.7098q15.232 0 24.202 0 9.0266 0 10.945 0.056416 8.3496 0.39491 11.791 1.9746 3.4414 1.5232 5.4724 3.4414 4.344 4.2876 4.344 10.381 0 6.0365-4.2312 10.606-1.2976 1.4104-2.99 2.4259 9.1958 1.6925 15.063 7.729 6.375 6.5443 6.375 15.966 0 9.5907-5.9237 16.53-8.2932 9.5907-25.613 10.493-4.4004 0.22566-8.6881 0.22566h-30.747zm37.009 27.757 2.8772 0.3385h0.90266q4.4569 0 7.729-3.2721 3.4978-3.4978 3.4978-8.5752 0-6.2058-5.3595-9.5343-2.708-1.6925-5.4159-1.9746-2.6516-0.3385-4.1748-0.45133-3.1593-0.22566-8.2932-0.22566v71.592h6.2622q9.5907 0 15.627-2.3695 7.2212-2.4823 11.452-8.0111 4.0055-5.2467 4.0055-11.001 0-5.7544-1.6925-9.7036-1.6925-3.9491-4.9082-6.7135-6.5443-5.698-18.222-5.698l-3.8927 0.3385q-1.8053 0-2.6516-0.73341t-0.84624-1.6925q0-2.3131 3.1029-2.3131z"/>
</g>
</g>
</svg>
